<svg width="467" height="136" viewBox="0 0 467 136" fill="none" xmlns="http://www.w3.org/2000/svg">
<path opacity="0.5" d="M41.5192 82.0428C41.5693 82.0428 41.6194 82.0428 41.5192 82.0428V82.0428ZM380.881 113.649C381.081 113.599 381.532 113.549 381.281 113.549C381.181 113.599 381.031 113.649 380.881 113.649ZM41.5192 82.0428C41.5693 82.0428 41.6194 82.0428 41.5192 82.0428V82.0428ZM41.5693 126.631C46.1756 128.977 47.0768 128.378 51.3826 131.524C66.7536 142.708 87.8823 131.274 86.3302 115.496C85.3789 106.109 89.3343 101.965 89.2842 97.9706C89.2842 94.1259 95.9433 96.5725 103.504 87.5352C105.606 85.0386 107.709 81.5435 118.824 77.9485C128.738 74.753 142.106 71.7572 145.11 71.3578C152.871 70.3592 170.995 65.3661 172.097 65.2163C199.034 61.1221 254.91 69.9597 265.824 76.3508C272.333 80.1455 274.887 80.9444 283.599 85.5379C283.148 86.4367 274.536 87.3854 273.885 87.4353C256.762 88.9332 261.468 97.2716 250.854 94.3756C235.333 90.0816 220.663 88.4339 210.249 102.414C205.042 109.405 201.887 109.804 200.035 112.45C196.23 117.843 200.886 122.087 206.944 124.733C221.915 131.224 224.668 132.223 229.124 130.974C242.543 127.18 249.903 128.628 257.163 114.847C259.566 110.253 262.77 105.41 260.918 98.9692C258.164 89.083 275.888 91.8791 283.198 90.0816C298.819 86.2869 312.538 99.9179 325.556 101.466C336.621 102.814 336.42 103.762 339.775 103.762C341.728 103.762 343.029 106.958 346.935 109.654C365.61 122.536 368.564 119.94 385.437 114.448C391.946 112.301 392.547 111.651 396.652 107.757C398.104 106.359 421.837 105.71 423.639 105.41C438.459 102.714 434.604 102.864 447.371 101.516C463.243 99.7681 465.796 102.964 466.197 101.366C466.748 98.9193 449.775 98.8693 433.452 102.015C418.332 104.961 429.647 103.213 398.705 105.66C401.309 104.012 397.253 103.213 405.164 103.463C415.879 103.812 419.383 101.166 422.688 100.717C446.72 97.3714 442.164 97.7209 449.624 97.3714C466.598 96.4727 466.848 98.2202 466.998 96.7223C467.298 93.0774 432.401 97.9706 432.351 97.9706C420.385 98.9193 415.929 101.865 410.571 101.915C396.702 102.065 396.903 101.266 393.949 102.315C388.742 104.162 366.762 105.51 367.012 101.815C367.413 96.6724 364.859 95.7736 366.612 95.1246C372.269 93.0275 376.926 91.3299 378.678 84.3396C380.631 76.6004 378.377 74.5533 378.478 66.1151C378.678 48.8891 360.603 48.6395 350.59 45.1444C348.136 44.2956 348.737 48.0403 347.235 51.1859C339.875 66.4646 346.184 86.3368 358.5 92.628C360.954 93.8264 361.905 94.076 362.406 95.1745C363.357 97.2216 364.859 102.614 362.606 102.215C352.342 100.317 340.476 104.761 333.917 89.9817C330.062 81.2439 335.97 82.1427 336.47 68.8612C336.771 61.3218 331.213 51.9349 327.258 48.7893C320.899 43.6964 315.141 45.9433 307.631 38.6035C300.471 31.6133 282.497 29.3165 286.402 46.5424C288.906 57.6769 289.707 65.466 296.917 71.208C304.076 76.9499 307.882 88.9831 323.753 86.5865C331.063 85.488 328.81 88.384 335.169 98.8194C324.955 97.1717 321.901 97.0219 317.194 94.3257C309.334 89.782 293.412 84.5393 293.212 84.4395C289.457 82.8417 256.912 65.8654 238.387 63.7184C223.116 61.9709 222.866 62.3204 219.261 60.9723C201.487 54.1318 201.186 58.0264 192.124 52.8336C181.46 46.7421 179.207 45.8933 177.654 42.548C169.143 23.924 163.435 30.365 161.432 24.4233C160.331 21.2278 158.128 21.0281 153.822 14.5871C148.615 6.8978 145.16 4.55109 137.5 1.45541C130.09 -1.54041 123.781 0.756378 117.072 2.40408C109.762 4.15164 109.011 9.44424 108.51 13.7382C101.301 10.7924 97.195 7.89641 89.7849 13.2889C85.3288 16.5343 87.8823 20.8283 88.3329 23.8242C89.134 29.2166 92.4886 28.8172 94.4412 33.8102C98.8472 45.1943 116.671 56.179 123.781 55.43C135.297 54.2317 149.917 36.9558 183.212 52.4841C187.818 54.6311 191.824 57.8267 196.58 59.8738C194.978 61.1221 178.055 58.326 161.482 62.8696C156.676 64.1678 124.983 68.8612 116.271 74.9028C115.67 75.3022 106.758 79.2467 105.206 79.8459C94.4412 84.2398 88.0325 79.9957 77.1677 79.8958C75.7658 79.8958 75.165 79.6961 64.7508 76.5505C62.0972 75.7516 63.5993 75.452 59.6439 72.2066C55.7386 69.011 54.3867 68.2621 53.4354 65.7156C50.5816 57.9764 49.9307 54.9806 42.821 49.8877C33.7086 43.3968 25.4974 45.1444 11.6286 46.8919C7.52297 47.4412 4.41875 49.8378 1.41466 52.3343C0.162956 53.3829 -0.437862 54.8808 0.363228 56.5784C1.16432 58.276 0.213024 59.5243 3.61766 65.8155C9.77603 77.1996 18.3377 74.6032 27.7505 79.746C37.7641 85.1884 49.6303 86.7363 58.7427 79.796C64.2001 75.6518 66.7035 85.4381 99.7985 86.0372C98.3465 89.3826 89.4344 92.1787 85.3789 94.825C80.1718 98.2702 65.5018 86.2869 53.2352 101.116C48.8292 106.409 44.273 108.805 43.2215 115.646C41.5693 125.083 38.9157 125.282 41.5693 126.631ZM61.947 76.9999C62.0972 76.5505 62.9484 76.9999 62.9484 77.1996C62.9484 77.6989 61.7968 77.3993 61.947 76.9999ZM41.5192 82.1427C41.5192 81.893 41.1187 82.2425 44.6234 81.4437C57.1905 78.6975 54.4368 76.4007 59.3935 76.9C50.1309 85.1884 41.5693 82.0928 41.5192 82.1427ZM38.9657 81.9929C38.6153 80.8944 50.4814 79.2467 52.9848 77.0997C53.6858 76.5006 54.3367 76.5505 55.338 77.0498C50.0308 79.796 44.4732 80.9444 38.9657 81.9929ZM46.1756 74.6531C47.9279 74.4035 48.3285 74.8529 52.384 76.6504C50.882 78.0484 40.9184 80.2453 37.714 81.1441C35.9617 81.6434 34.5598 80.5948 33.0076 80.0955C31.5557 79.6462 37.8643 75.7516 46.1756 74.6531ZM29.9034 78.6975C36.8629 73.6046 50.4313 72.9555 44.5233 74.2537C30.0036 77.3993 34.0591 81.0442 29.9034 78.6975ZM22.243 75.1525C23.3445 73.6046 27.2498 70.459 33.258 68.312C36.0618 67.3134 35.8115 68.6116 42.07 71.7073C43.3717 72.3564 44.7736 73.0554 43.3217 73.2551C30.1538 75.2024 30.4542 79.8459 27.0996 77.4492C25.6977 76.4007 23.9954 75.8015 22.243 75.1525ZM15.7341 73.6545C26.0482 67.6629 35.461 66.864 32.0063 68.1622C20.5907 72.3064 24.0454 77.3494 15.7341 73.6545ZM10.7774 71.0082C18.6882 70.3092 29.7031 62.9695 33.0577 66.4646C32.8574 67.0638 32.3067 66.864 31.9061 66.914C17.3864 69.011 16.7856 75.7516 11.7788 72.0568C11.4784 71.8071 11.1279 71.7073 10.7774 71.0082ZM4.36868 63.6186C6.17113 63.4188 12.3295 63.7684 20.3905 60.6727C21.9426 60.1234 29.0022 63.8682 30.0036 64.4674C29.6531 65.9154 30.6544 63.5686 21.0414 67.4133C11.1779 71.3078 8.62447 72.5062 4.36868 63.6186ZM3.76786 60.9223C11.4783 62.1207 19.4892 59.6241 19.5393 60.2233C19.5894 60.5728 12.7301 62.7198 5.57031 62.9695C3.76786 63.0194 3.76786 62.9695 3.21711 61.0222C3.41738 61.0222 3.61766 60.8724 3.76786 60.9223ZM1.56486 55.8294C13.9818 58.5756 24.9967 59.4244 11.929 60.423C1.36459 61.2718 2.81657 60.2732 1.56486 55.8294ZM3.26718 53.3329C5.42011 53.7324 7.3227 54.731 9.02501 56.0791C-0.938542 56.2788 1.11425 53.0334 3.26718 53.3329ZM9.27535 50.2872C11.8288 52.2844 19.4892 57.2275 19.339 58.9251C15.1834 57.6269 10.9777 56.6783 7.37276 54.1318C6.27127 53.3329 4.86936 53.3829 3.51752 52.6838C4.96949 51.2359 7.62311 49.0389 9.27535 50.2872ZM22.0427 59.8738C20.1902 59.2247 19.3891 57.3773 17.9872 56.179C16.8356 55.1804 16.4351 54.9307 8.92488 49.3885C11.1779 47.7907 19.8397 55.6297 22.0427 59.8738ZM21.5921 48.6395C26.4988 62.8696 32.8574 64.5672 24.4961 61.0222C23.4446 60.5728 22.994 59.3246 20.5907 56.4785C12.68 47.0417 4.71915 49.4883 19.9399 47.591C20.8912 47.4412 21.2917 47.7407 21.5921 48.6395ZM23.5448 47.6908C29.2025 63.5187 30.6544 61.9709 30.1037 63.2691C30.2038 63.3689 30.6044 63.2191 30.5042 63.5686C27.9508 61.7711 20.9412 47.6908 22.2931 47.3413C22.7437 47.2414 23.2944 46.9918 23.5448 47.6908ZM42.6708 70.9084C28.2512 66.2149 23.1442 47.1416 24.5962 46.9918C39.0158 45.6437 25.8479 47.4911 42.6708 70.9084ZM43.0213 67.7128C46.526 72.7059 46.6762 72.4063 46.6262 73.1053C40.8683 72.2066 31.055 47.9904 33.308 47.591C36.5625 46.9918 32.557 53.0334 43.0213 67.7128ZM37.6139 50.2872C39.8169 62.4702 44.323 66.2649 43.8724 67.613C43.7222 68.0124 43.572 67.8626 43.9726 68.0124C44.5734 68.2121 44.7236 68.6116 44.5734 68.6116C44.5734 68.5117 35.9116 57.6269 35.3108 48.29C37.3135 48.6894 37.3135 48.6894 37.6139 50.2872ZM45.9252 57.4771C47.0267 67.7628 52.2338 72.3564 56.1391 76.0013C50.9821 76.201 49.43 74.4534 47.4773 71.6573C40.0672 61.0222 37.664 49.9876 38.3149 49.4883C38.5652 49.2387 45.2743 51.5854 45.9252 57.4771ZM59.1432 73.8543C62.3476 76.5006 60.7954 75.9513 57.9416 76.1011C53.5356 76.2509 43.9726 58.5257 46.4259 55.4799C46.6262 55.2802 48.3786 57.577 49.2297 59.4744C53.5856 68.6116 49.3298 65.8654 59.1432 73.8543ZM69.8578 79.796C69.8077 79.8958 69.8578 79.8459 69.5073 79.6961C69.5574 79.6462 69.5073 79.5962 69.8578 79.796ZM305.328 77.6989C305.979 76.2509 316.994 76.5006 324.454 79.2467C326.958 80.1954 327.458 80.5949 328.46 83.6905C322.802 81.2939 318.095 82.2425 315.943 82.2925C309.183 82.3923 309.434 82.0428 305.328 77.6989ZM303.676 76.0512C303.375 75.502 302.725 75.2024 302.674 74.5034C311.537 71.8571 321.801 74.753 326.257 79.4465C320.999 76.9999 311.236 75.3522 305.729 76.8002C304.777 76.9999 304.177 76.8501 303.676 76.0512ZM295.865 66.5145C308.683 69.76 314.09 63.1193 324.855 76.3008C327.809 79.8459 317.495 70.5589 305.578 73.305C300.922 74.3536 300.772 72.4063 297.067 69.1109C295.365 67.6629 293.712 65.9653 295.865 66.5145ZM304.076 64.8169C305.829 64.8668 310.886 65.7156 311.937 66.6643C311.637 67.1636 302.174 67.3633 295.365 65.8155C294.113 65.5159 293.212 64.8169 292.711 63.6685C292.01 62.0707 291.76 61.9209 291.91 62.0208C293.212 61.6214 294.814 64.5173 304.076 64.8169ZM290.458 51.835C292.961 53.3329 297.818 54.8308 299.27 56.5285C303.225 60.9723 307.03 63.2691 308.933 64.717C289.356 62.7198 291.81 62.1207 289.156 51.5354C289.807 51.136 290.107 51.6353 290.458 51.835ZM288.705 48.7893C290.959 50.0875 291.609 51.0361 295.815 52.6339C296.466 52.8836 296.867 53.2331 297.017 54.0819C291.459 51.9349 288.505 50.7366 288.705 48.7893ZM289.006 45.6936C294.513 51.2359 294.063 47.8905 295.615 51.7352C287.654 48.8392 288.105 46.5424 287.754 44.8448C288.405 44.9446 288.706 45.394 289.006 45.6936ZM290.007 36.7062C290.057 36.806 291.309 42.8975 293.812 48.3399C291.71 47.8406 287.454 43.946 287.404 42.0986C287.254 38.953 289.406 34.4094 290.007 36.7062ZM291.009 36.2568C290.558 36.806 290.258 35.9073 290.308 35.5578C290.358 35.2083 291.309 35.2083 291.009 36.2568ZM292.561 35.6077C292.711 36.2568 292.411 41.2498 292.36 40.9502C290.107 41.0501 291.96 32.9115 292.561 35.6077ZM296.066 51.0361C296.416 51.0361 294.764 48.1402 294.563 47.8406C291.76 43.297 293.262 39.6021 293.212 36.3067C293.212 35.9073 293.011 35.3081 293.612 35.2083C298.018 34.3095 297.217 50.437 296.066 51.0361ZM298.869 38.254C300.221 42.6978 299.821 45.7935 299.72 51.7352C299.67 53.8822 300.221 56.3787 299.771 55.9293C296.066 52.1845 297.417 48.29 297.618 42.7477C297.868 37.6049 295.515 35.8573 296.116 35.358C297.167 34.4593 298.469 36.9059 298.869 38.254ZM301.773 47.3912C301.423 50.3871 300.622 53.982 301.923 57.6769C299.921 55.3801 300.421 52.8336 300.522 46.093C300.622 37.4551 298.018 36.0571 298.819 35.7076C300.071 35.1583 302.224 40.9502 301.773 47.3912ZM307.231 40.401C307.882 41.0501 304.477 53.6824 312.738 65.6657C312.938 65.6158 304.327 62.1706 302.925 58.276C300.672 51.9349 302.624 50.7865 302.474 44.4953C302.274 38.4038 300.421 37.4052 300.822 36.3567C303.426 37.0057 305.378 38.6035 307.231 40.401ZM315.592 67.5631C311.537 66.7642 305.679 48.7394 307.781 42.6479C307.932 42.2484 307.781 41.5494 308.282 41.5993C311.436 41.849 304.928 47.1915 315.592 67.5631ZM316.043 46.842C319.898 55.8794 318.346 59.6741 320.449 69.9098C320.799 71.5575 319.998 70.6587 317.194 68.8612C315.192 67.5631 307.131 45.3441 310.135 42.9974C316.093 46.2428 315.192 44.7949 316.043 46.842ZM323.403 73.2052C321.2 72.3064 320.849 70.8585 319.547 57.4771C318.897 50.5368 316.293 46.7421 316.593 45.9433C326.156 46.9918 322.101 68.3619 323.403 73.2052ZM325.255 75.3522C325.806 75.3022 324.905 76.1511 324.154 73.7045C323.553 71.8071 323.453 69.9597 323.903 61.2718C324.304 52.7837 320.849 48.3399 321.1 47.541C333.316 48.8891 325.005 68.9611 325.255 75.3522ZM328.309 51.835C328.359 51.885 328.209 51.885 328.159 51.885C328.209 51.885 328.259 51.885 328.309 51.835ZM333.266 67.6629C330.362 74.1039 329.211 75.0526 328.359 79.2967C327.759 82.3424 325.456 75.2024 326.106 71.6573C327.759 62.8696 329.161 61.0222 328.059 53.5826C327.959 53.0334 327.508 52.3843 328.259 51.885C331.313 57.1276 335.87 61.9209 333.266 67.6629ZM329.311 80.6448C328.76 81.194 329.261 80.8445 329.311 80.6448C327.508 79.746 333.216 69.6601 334.468 66.5645C335.87 70.6088 328.109 79.1968 329.311 80.6448ZM330.112 82.642C329.611 84.09 329.962 83.5407 329.912 83.7405C329.761 84.1898 329.561 82.9416 329.611 82.2425C330.162 76.8501 332.866 74.8529 334.167 71.5075C335.269 75.9513 331.864 77.4492 330.112 82.642ZM331.013 83.7904C330.763 83.5407 330.863 83.1413 331.113 82.8916C331.464 82.2925 330.562 83.0914 331.564 80.9943C331.564 81.5435 330.963 82.3923 331.263 82.6919C330.713 83.6905 331.364 84.1399 331.013 83.7904ZM330.813 85.7876C330.863 85.1385 331.013 85.1884 330.913 84.9887C330.913 84.8389 330.713 84.6891 330.813 84.5393C330.863 84.3895 330.963 84.2398 331.013 84.1898C330.663 85.1385 331.564 85.7377 331.514 87.1856C331.514 87.9346 331.163 88.2342 331.464 88.2342C331.313 88.2342 330.613 87.0858 330.813 85.7876ZM311.186 82.8417C314.841 83.4409 326.207 81.2439 329.261 85.2384C324.504 84.1898 314.591 86.6364 311.186 82.8417ZM347.836 104.911C352.092 106.309 354.545 105.161 362.055 106.209C364.008 106.459 362.005 106.758 363.657 112.85C364.559 116.395 347.485 107.907 347.836 104.911ZM363.257 104.362C363.107 104.911 362.506 104.861 361.404 104.711C355.697 103.762 345.533 105.111 344.481 101.615C351.391 103.912 363.708 102.315 363.257 104.362ZM347.586 75.7516C347.586 75.9014 351.691 80.4451 357.9 83.9901C360.453 85.4381 364.859 87.7349 364.408 90.5809C363.207 90.8306 363.958 88.4339 356.898 86.187C354.896 85.5379 351.591 84.4894 350.79 83.0414C346.785 76.0013 347.636 76.0512 347.536 75.9014C347.085 75.8015 347.636 75.502 347.586 75.7516ZM347.285 72.9056C351.14 78.348 360.603 79.4964 363.657 86.8361C353.744 80.5948 352.092 80.2953 347.035 73.8543C345.983 72.5561 346.033 71.158 347.285 72.9056ZM364.809 87.8847C359.952 74.6032 344.431 80.1455 345.833 63.3689C359.702 75.452 371.218 70.3591 364.809 87.8847ZM347.285 58.0763C352.142 64.3176 359.552 66.165 364.509 68.1622C366.712 69.1109 366.862 73.7544 366.862 76.1511C356.197 66.5644 342.729 67.0638 346.885 57.7767C346.985 57.8766 347.185 57.9265 347.285 58.0763ZM348.787 55.9792C357.699 65.1664 363.758 62.9195 365.109 67.5631C359.402 65.7156 344.181 59.3246 347.636 54.9307C348.086 55.1304 348.437 55.5798 348.787 55.9792ZM350.439 47.591C353.143 53.6325 359.201 55.7296 362.957 62.8197C363.357 63.5686 363.908 64.5672 362.806 64.1179C357.699 62.1207 353.043 59.4743 349.138 55.5299C347.636 54.032 347.636 54.032 348.487 52.1346C349.889 48.8891 349.538 45.4939 350.439 47.591ZM357.699 54.5313C355.446 53.6325 352.042 49.738 350.94 46.9419C351.691 46.842 352.142 47.2914 352.693 47.3413C356.448 47.6409 356.748 50.8863 357.699 54.5313ZM359.852 56.7282C358 56.4785 359.251 55.7296 356.498 48.5896C358.901 48.6395 359.452 53.7324 359.852 56.7282ZM360.603 50.5368C361.555 53.1831 361.755 55.9293 361.705 58.9251C359.902 58.2261 360.754 53.6824 358.651 49.3885C360.153 49.3385 360.153 49.3385 360.603 50.5368ZM365.26 65.3661C362.306 60.1235 362.206 60.1734 362.256 59.5243C362.506 56.2289 362.155 52.9834 360.954 49.738C367.513 50.437 371.268 51.835 365.26 65.3661ZM370.216 54.1817C371.118 61.2718 369.265 63.7684 366.862 68.9611C364.559 66.2149 366.712 64.018 367.913 60.0236C369.415 54.8308 368.164 53.1831 368.814 52.584C369.866 52.584 370.116 53.283 370.216 54.1817ZM376.625 65.5658C373.471 73.6046 371.017 72.7558 368.564 77.9985C367.362 80.6947 367.613 76.4506 367.613 76.3508C367.312 71.158 366.812 70.5089 367.963 68.4119C370.967 63.0693 371.518 58.326 370.867 54.4314C370.467 51.6852 378.528 60.8225 376.625 65.5658ZM375.824 72.5061C371.618 76.9499 372.52 79.047 366.762 85.3382C366.361 79.2967 373.07 73.9042 376.725 67.2135C376.926 69.3605 377.226 71.0082 375.824 72.5061ZM375.173 82.0928C370.917 86.4367 370.617 85.4381 365.26 90.3812C365.51 88.5338 365.46 87.3854 366.812 86.0872C373.07 80.0955 377.326 66.6643 377.677 74.9527C377.877 79.8459 378.578 78.5976 375.173 82.0928ZM366.161 91.0802C367.312 87.9346 370.867 87.8347 376.775 81.3438C378.378 79.746 373.671 88.6836 366.161 91.0802ZM365.059 93.9762C364.959 92.7778 366.611 91.7792 367.463 91.4297C373.621 88.6836 376.425 83.2412 377.226 82.9915C376.425 90.8805 368.865 92.3784 365.059 93.9762ZM363.507 94.4255C362.406 91.5296 355.546 90.6808 352.442 85.3382C355.747 86.4367 358.801 87.2855 361.505 89.0331C365.61 91.7293 363.407 94.825 364.709 95.9734C364.909 96.0233 364.158 96.1232 363.507 94.4255ZM364.959 98.5697C365.41 98.5697 365.76 99.3686 364.959 98.5697C364.859 98.5697 364.859 98.5697 364.959 98.5198C365.059 98.0205 364.609 97.6211 365.059 97.1717C365.059 97.1218 365.059 97.1717 365.059 97.0718C364.559 96.922 364.909 96.6724 364.909 96.5725C364.709 96.3728 364.659 96.1731 364.759 95.9734C364.859 96.7723 365.109 96.4227 364.909 96.5725C365.61 99.0191 364.709 98.3201 364.959 98.5697ZM382.583 113.449C384.085 112.201 389.443 112.051 394.65 105.86C395 105.41 395.551 104.961 395.05 104.412C394.499 103.862 393.999 104.412 393.598 104.811C392.447 105.959 393.648 104.761 388.992 106.159C380.931 108.556 380.28 107.757 368.013 106.359C367.363 106.309 366.762 106.209 366.812 105.31C366.862 104.312 367.062 104.162 368.063 104.412C381.932 108.056 395.15 102.564 398.505 103.363C398.655 103.812 392.797 111.951 382.583 113.449ZM379.88 112.35C370.266 114.348 367.262 117.493 366.862 108.256C366.812 107.008 367.312 107.507 374.372 108.506C386.489 110.203 388.842 106.908 391.295 107.258C388.191 109.854 383.785 111.552 379.88 112.35ZM334.618 93.8763C333.967 93.7764 333.366 93.5767 333.516 92.9276C333.617 92.5781 333.366 92.9776 333.266 92.0289C333.266 91.9789 333.316 91.7792 333.266 91.6794C333.216 91.7792 333.166 91.7293 333.216 91.6794C333.416 91.4796 333.216 91.8791 333.516 92.4283C333.617 92.5781 333.567 92.8278 333.617 92.8777C333.867 93.2272 333.516 93.3271 333.617 93.377C335.269 93.4269 352.042 116.644 364.308 115.197C367.613 114.797 363.207 112.65 364.859 104.412C365.41 101.665 365.31 100.367 365.31 100.217C365.41 99.7681 365.56 99.8679 365.51 99.6682C365.009 99.3187 365.56 99.0191 365.51 98.8693C365.51 98.8693 365.56 99.6183 365.51 99.6682C365.76 99.818 365.36 100.617 365.36 100.717C367.112 102.464 360.353 119.64 375.624 114.847C376.525 114.547 381.982 113.099 382.533 113.349C383.685 109.754 368.414 129.626 342.679 103.413C339.825 100.717 333.166 95.5739 334.618 93.8763ZM250.003 121.488C251.255 117.493 252.156 115.097 252.056 110.703C252.006 108.206 253.808 101.965 255.41 101.516C255.861 103.912 254.409 107.807 254.259 111.002C254.108 114.697 255.861 117.393 250.003 121.488ZM244.145 125.332C253.958 106.958 247.65 109.055 252.556 105.21C249.803 111.901 253.508 122.836 244.145 125.332ZM228.223 129.077C233.28 125.832 239.689 119.79 241.541 115.246C242.493 112.85 243.394 113.299 249.552 108.306C250.153 112.5 246.047 120.988 243.744 124.783C242.943 126.081 242.092 126.481 238.988 127.03C229.275 128.628 229.024 130.126 228.223 129.077ZM228.223 129.227C228.223 129.177 228.123 129.077 228.223 129.077V129.227ZM229.225 123.685C237.436 118.692 234.131 117.793 240.991 114.797C237.886 122.137 226.821 129.976 225.72 129.926C217.559 129.626 223.617 127.03 229.225 123.685ZM217.659 127.28C217.409 125.932 221.814 124.084 223.116 123.635C231.728 120.489 234.031 116.944 236.034 117.194C232.179 121.638 228.974 122.936 223.467 126.381C221.114 127.829 221.063 129.177 219.361 128.278C218.81 127.929 217.809 127.929 217.659 127.28ZM206.544 121.937C217.308 114.697 217.409 120.539 231.177 118.242C233.03 117.893 230.226 119.74 228.524 120.589C224.218 122.836 219.662 123.685 217.208 126.531C216.557 127.23 216.908 127.18 207.445 123.285C206.594 122.936 205.843 122.436 206.544 121.937ZM203.239 120.789C206.343 119.041 208.997 117.194 212.552 117.893C210.199 118.742 208.196 120.09 206.193 121.488C204.992 122.386 204.441 121.238 203.239 120.789ZM207.946 117.344C202.638 120.639 202.638 120.439 201.988 119.84C201.337 119.291 200.185 118.841 200.335 117.943C200.636 116.545 205.743 116.944 207.946 117.344ZM204.741 111.602C207.645 112.7 211.25 115.596 212.302 116.844C206.143 116.345 203.69 115.896 200.886 116.894C198.232 117.793 201.787 110.453 204.741 111.602ZM218.109 117.344C211.851 117.743 210.499 112.7 204.641 111.052C204.591 110.303 205.142 110.104 205.492 109.804C208.196 107.557 212.151 114.797 218.109 117.344ZM210.349 108.206C216.908 115.696 221.264 116.095 221.664 117.493C214.104 116.045 213.203 112.251 207.996 109.205C206.494 108.356 208.346 105.909 210.349 108.206ZM216.207 100.168C232.98 106.708 231.878 112.5 239.889 114.148C233.43 118.542 224.668 119.391 217.208 113.699C215.606 112.5 209.348 107.008 209.398 106.209C209.498 105.51 213.653 100.817 213.703 100.767C214.454 99.9179 215.206 99.7681 216.207 100.168ZM217.108 98.42C225.82 99.7681 233.981 110.553 240.74 112.251C243.093 112.85 241.141 113.749 239.889 113.549C236.334 112.95 234.732 111.052 230.176 107.258C222.365 100.667 215.356 100.118 215.556 99.069C215.706 98.3201 216.407 98.3201 217.108 98.42ZM223.617 95.6239C235.133 100.168 231.828 104.561 244.395 110.952C241.692 115.396 230.326 104.462 227.222 102.514C218.26 97.0219 219.662 98.9193 217.058 97.5212C218.41 96.4727 219.762 95.8735 221.063 95.3243C221.915 94.9748 222.816 95.3243 223.617 95.6239ZM250.904 105.26C249.552 107.357 247.75 108.905 245.797 110.253C243.444 111.851 236.384 104.911 234.332 102.464C229.175 96.4727 224.018 95.4241 223.266 94.825C223.767 94.5254 228.474 92.2286 230.326 93.5268C235.083 96.7723 236.184 103.912 250.904 105.26ZM252.456 103.563C250.804 105.71 240.84 104.262 234.882 97.1717C233.631 95.6738 232.279 94.2258 230.476 92.8278C233.881 91.929 236.284 104.062 252.456 103.563ZM254.359 100.966C253.958 102.514 252.256 103.063 250.854 102.914C239.689 102.015 236.885 97.6211 232.529 92.8278C239.939 90.6308 237.286 101.665 254.359 100.966ZM246.899 95.4241C250.854 98.5198 254.209 98.0704 255.56 98.42C255.16 102.315 242.543 100.717 237.936 93.1773C240.29 93.1773 244.996 93.9262 246.899 95.4241ZM256.912 96.0732C256.161 99.3686 249.652 96.7723 248 95.1246C250.954 96.0732 253.808 96.6724 256.912 96.0732ZM259.015 95.524C258.464 102.215 262.97 100.367 255.36 114.697C254.609 112.9 254.809 111.152 255.11 109.455C257.113 97.5212 255.01 99.2188 259.015 95.524ZM58.5424 119.091C53.836 121.638 48.9293 120.14 44.0727 120.14C43.572 117.244 49.1296 119.091 58.5424 119.091ZM61.0458 117.693C56.039 119.441 48.9293 117.194 44.5233 118.192C43.7222 113.898 45.6248 114.647 61.0458 117.693ZM58.242 110.653C66.0526 112.55 69.8077 109.405 70.9593 109.904C64.901 120.789 59.6939 115.796 45.8751 114.647C44.0727 114.497 46.3258 111.052 47.4273 109.704C48.5788 108.256 54.0863 109.654 58.242 110.653ZM66.9538 107.507C71.0594 107.607 72.261 106.708 72.4613 107.308C72.7617 108.056 71.3098 108.756 70.5587 109.105C61.4964 112.95 57.0904 108.656 48.5288 108.456C49.48 107.158 50.5315 106.359 51.4828 105.46C53.6357 103.463 61.8469 107.357 66.9538 107.507ZM53.3353 103.613C57.1405 102.564 65.8523 106.658 73.1623 105.76C72.5114 106.409 71.7103 106.509 70.9092 106.658C62.9984 107.907 59.1933 104.262 53.4354 104.412C52.7345 104.362 52.8346 103.762 53.3353 103.613ZM59.0931 98.4699C64.851 98.42 70.3084 99.7681 75.5155 101.665C75.8159 102.165 75.5655 102.315 75.4654 102.564C73.2624 108.306 62.4978 103.213 53.9361 102.814C54.7873 101.516 57.2907 98.4699 59.0931 98.4699ZM63.399 96.4227C69.5574 97.3215 67.805 96.972 76.1163 99.9179C77.0676 100.267 76.4167 101.116 75.8159 100.966C72.8118 100.317 68.1555 97.9706 60.1446 97.8707C58.5924 97.8707 60.7454 96.0233 63.399 96.4227ZM80.5223 97.2216C77.0676 100.767 78.119 99.818 69.4072 96.8721C67.6047 96.2729 65.7021 96.223 63.8496 95.8236C65.8523 94.0261 76.9174 95.0746 80.5223 97.2216ZM142.106 33.0612C150.367 34.6091 155.224 31.8629 158.979 29.666C161.983 27.8685 168.342 33.3608 169.994 35.358C173.299 39.3025 171.796 40.3011 173.549 44.2956C172.948 45.2442 167.19 42.4481 156.826 43.8961C150.568 44.7449 145.711 38.7533 142.106 33.0612ZM160.331 26.2707C157.627 25.8713 157.727 23.6744 157.277 21.777C158.929 22.476 159.98 24.0738 160.331 26.2707ZM173.148 37.9045C173.148 37.9045 173.148 37.9544 173.148 37.9045C173.148 37.9544 173.148 37.9544 173.148 37.9045ZM153.922 17.9324C156.426 19.63 156.876 20.8783 156.926 24.3734C157.076 24.5232 157.177 24.4733 157.126 24.623C157.126 24.623 157.026 24.623 157.026 24.5731C155.825 24.1237 154.273 19.1307 153.922 17.9324ZM128.237 37.9544C127.386 37.6548 127.086 36.9059 126.635 36.2568C122.079 29.8158 122.83 23.7243 119.175 18.7812C122.68 16.8339 123.03 29.6161 128.237 37.6548C128.287 37.7048 128.237 37.8546 128.237 37.9544C129.239 38.3039 127.987 38.6534 128.237 37.9544ZM145.861 42.4481C136.348 41.2997 133.544 22.3762 132.643 23.5246C132.643 23.5745 132.543 23.5745 132.643 23.5246C132.593 23.4746 132.793 23.4247 132.793 23.4746C132.793 23.5246 132.643 23.4746 132.793 23.5246C137.199 23.7243 133.144 31.3636 145.861 42.4481ZM137.3 29.2166C137.3 29.2166 137.249 29.4163 137.249 29.2666C137.3 29.0668 137.4 29.3664 137.3 29.2166ZM140.404 40.401C133.294 39.3025 133.795 39.4024 132.994 38.5536C127.887 32.9614 128.788 29.5661 124.983 19.3804C134.946 18.4317 132.243 32.1625 140.404 40.401ZM132.343 38.9031C126.285 40.1014 125.083 25.1223 121.428 18.9809C127.636 17.8825 124.031 27.6688 132.343 38.9031ZM125.634 35.8074C125.684 35.7575 125.684 35.7076 125.734 35.7575C125.734 35.7575 125.684 35.8074 125.634 35.8074ZM124.382 34.9087C119.776 28.5675 120.477 25.3221 117.372 18.8811C117.172 18.4816 117.372 18.0822 118.073 18.3318C120.226 19.1307 123.531 33.9101 125.483 35.5578C125.984 35.9073 125.133 35.9073 124.382 34.9087ZM112.316 15.336C112.566 14.3873 114.569 15.3859 119.976 12.6897C121.428 11.9408 121.778 12.2403 127.486 13.1391C127.086 14.2375 116.021 17.3831 112.316 15.336ZM131.742 14.4373C123.531 16.9338 124.732 17.8325 119.125 16.6841C118.975 16.085 118.975 16.3845 119.776 16.2348C127.386 15.1363 128.387 12.49 131.742 14.4373ZM134.245 15.2861C131.442 15.8353 128.838 17.2334 125.584 17.5829C127.436 16.1848 132.493 14.8866 134.245 15.2861ZM138.601 16.8839C138.451 17.5829 137.85 17.5829 137.4 17.7826C133.344 19.3304 131.291 20.2791 127.887 17.7826C137.149 15.0864 135.747 15.5857 138.601 16.8839ZM140.754 18.0822C138 19.3804 135.247 20.1792 132.293 20.0794C141.305 17.5329 138.802 16.9338 140.754 18.0822ZM141.405 18.4816C142.006 18.182 142.757 18.8811 141.906 19.2306C139.703 20.1792 135.247 21.8769 132.994 20.9781C136.849 20.1293 138.451 20.0295 141.405 18.4816ZM143.658 19.3804C146.362 21.1279 148.064 21.2777 145.411 22.0766C142.757 22.8755 140.003 23.2749 137.249 23.5745C135.998 23.7243 134.996 23.4746 134.396 21.9767C137.45 21.5274 140.304 20.7784 142.957 19.4303C143.208 19.3304 143.458 19.2306 143.658 19.3804ZM147.764 22.1765C146.963 23.5246 139.853 24.7728 137.85 25.1723C137.099 25.3221 136.498 25.2222 136.248 24.1237C140.203 24.0738 144.009 23.2749 147.764 22.1765ZM148.665 22.8755C149.366 22.7257 150.217 23.4247 149.015 23.8242C147.363 24.4233 138.852 27.1695 137.7 25.8214C148.715 23.6244 147.413 23.1251 148.665 22.8755ZM151.869 24.3734C154.423 25.7215 157.327 25.4219 152.32 26.77C148.465 27.8186 144.509 28.2679 140.554 28.5675C139.252 28.6674 138.501 28.1681 138.201 26.8699C140.304 26.2707 141.655 27.1695 149.566 24.2236C150.367 23.9739 151.018 23.9739 151.869 24.3734ZM140.954 29.2666C140.804 29.2666 140.904 29.2666 140.954 29.2666V29.2666ZM155.775 26.1209C156.826 25.6216 159.229 26.4705 153.572 28.1681C146.562 30.3151 141.005 29.2666 140.904 29.2666C143.258 28.6674 149.666 29.0169 155.775 26.1209ZM160.932 27.6688C157.777 27.2194 157.577 30.4149 150.217 31.6133C141.956 32.9614 138.101 29.7159 141.205 29.9656C155.925 31.2638 157.377 24.673 160.932 27.6688ZM162.734 28.1681C162.734 28.218 162.484 28.218 162.384 28.1681C161.683 27.8685 162.934 27.6189 162.734 28.1681ZM148.214 42.8476C150.818 45.2942 138.852 38.2041 137.199 29.3165C138.601 29.3165 139.402 34.8587 148.214 42.8476ZM139.753 45.9932C141.555 45.3441 149.867 43.3968 150.467 45.0944C144.359 46.2428 141.706 45.9433 133.294 50.5868C127.686 53.7823 134.696 47.7907 139.753 45.9932ZM117.823 52.4342C120.527 50.8364 123.13 50.6866 128.588 48.5896C137.9 45.0445 137.3 40.1513 140.203 41.3497C143.358 42.6978 147.714 43.996 145.411 44.1458C132.994 45.0445 132.543 53.3329 122.68 53.7823C121.027 53.8822 119.475 53.5327 117.823 52.4342ZM112.316 49.6381C115.52 48.0403 116.922 48.1901 123.531 46.5923C134.946 43.7963 136.148 40.4509 137.3 40.6007C138.251 40.7505 137.75 41.3497 137.049 42.0986C132.894 46.842 128.387 48.0903 122.429 49.9876C115.27 52.1845 119.025 53.0833 112.316 49.6381ZM107.859 46.9419C108.06 45.8933 117.122 44.5452 118.925 44.3954C130.64 43.4467 132.193 39.1527 135.898 40.6007C131.442 44.0958 125.083 45.8434 119.525 46.8919C111.915 48.3898 112.115 49.9377 110.513 48.7893C109.612 48.1402 108.56 47.7407 107.859 46.9419ZM98.4467 37.4551C111.014 38.4537 114.418 35.2083 116.271 36.1569C125.734 40.9003 135.197 38.7533 131.091 40.6507C122.379 44.6451 117.523 42.8476 108.41 45.8434C107.259 46.2428 106.408 46.093 105.456 45.2942C104.455 44.3455 98.4467 38.8532 98.4467 37.4551ZM98.0461 34.8587C108.41 36.7062 111.514 33.9101 114.368 35.5078C108.911 36.9558 103.704 37.7048 98.3465 36.9059C97.0948 36.7062 96.6943 35.9073 96.5441 34.7589C97.1449 34.5092 97.5955 34.7589 98.0461 34.8587ZM98.3966 24.1237C98.697 24.1737 98.9473 24.623 99.1977 24.8727C95.6429 24.4733 92.2883 23.8242 89.4344 21.6772C92.4385 22.476 95.3424 23.5745 98.3966 24.1237ZM97.195 22.9753C92.8891 22.3262 86.6807 20.9781 88.6834 16.784C90.3857 13.3388 90.9865 15.6356 97.195 22.9753ZM110.563 33.211C112.015 34.0599 111.865 33.8102 111.665 34.3594C108.911 34.7589 96.5441 35.6576 95.6929 32.9115C94.241 28.3179 89.885 27.8186 89.885 23.2749C90.2856 22.526 89.835 23.7742 97.3452 25.4219C102.352 26.4705 101.501 27.8685 110.563 33.211ZM92.5887 14.0878C93.2897 15.1363 93.8404 16.2348 94.2409 17.8825C90.586 14.6869 90.3356 14.6869 91.0366 14.2375C91.4872 13.888 91.9879 13.2389 92.5887 14.0878ZM94.1909 13.189C109.562 36.0571 95.9433 20.8283 95.2423 18.7313C93.3898 13.3388 92.2883 13.4387 93.2396 12.9893C93.5901 12.7896 93.9405 12.8395 94.1909 13.189ZM103.804 27.519C101.25 27.3193 105.156 27.1196 95.1422 13.5385C94.8918 13.189 94.3912 12.5899 94.7917 12.4401C96.0434 11.8908 103.053 22.3262 103.804 27.519ZM111.665 32.0626C112.866 34.0099 107.209 30.3151 105.356 29.0668C103.754 27.9684 105.656 24.5731 97.4954 14.1377C95.9433 12.1405 96.2437 12.5399 96.0935 12.1405C104.505 8.49557 104.405 20.1293 111.665 32.0626ZM115.47 34.659C111.865 34.709 106.958 20.4788 103.704 13.6384C109.462 14.5371 107.359 22.3262 115.47 34.659ZM110.964 18.3318C112.916 28.8671 118.374 34.4593 119.726 36.5064C113.717 36.107 110.713 22.0267 107.459 15.1862C109.261 15.8353 110.563 16.2847 110.964 18.3318ZM115.92 18.0322C118.174 18.5815 118.724 29.4163 125.133 36.806C125.483 37.2055 125.934 37.555 126.184 38.3039C124.031 38.1541 122.079 38.0043 120.527 36.2568C115.27 30.4649 111.865 21.7271 111.314 16.9837C112.866 17.3332 114.418 17.6827 115.92 18.0322ZM110.563 13.3887C115.019 13.189 115.52 11.2917 119.475 12.1405C111.114 16.4345 108.51 13.5385 110.563 13.3887ZM114.418 11.791C112.015 13.3887 108.811 13.4886 110.363 10.7924C110.713 10.1433 111.565 11.042 114.418 11.791ZM111.615 8.49557C120.477 11.8908 115.37 11.3915 111.114 10.0933C110.213 9.79375 110.763 8.19598 111.615 8.49557ZM112.265 8.19599C111.414 7.79655 111.364 7.59682 112.015 6.84787C112.566 6.2487 113.167 5.94913 114.018 6.34857C124.132 11.0919 125.934 14.3873 112.265 8.19599ZM117.022 5.00046C119.625 6.29865 123.431 9.84369 125.233 11.6911C122.83 12.5899 122.88 9.24452 114.468 5.8992C114.318 5.84926 114.218 5.64954 114.068 5.54968C115.52 4.30142 115.52 4.30144 117.022 5.00046ZM123.331 2.95331C129.99 14.1377 133.995 13.6883 126.935 12.2903C126.485 12.1904 122.93 8.44563 119.876 6.09891C118.123 4.75079 115.42 4.1017 117.773 3.6024C122.68 2.40407 122.93 2.30421 123.331 2.95331ZM133.444 13.3887C133.494 13.4387 133.444 13.6384 133.444 13.7382C132.343 14.0378 122.88 2.90338 124.031 2.15443C125.483 1.25568 127.837 7.09752 133.444 13.3887ZM139.753 11.8409C143.258 17.8825 143.658 18.3318 141.555 17.3832C133.594 13.8381 135.697 15.6855 125.483 1.80492C127.887 1.4554 129.99 0.856247 132.092 2.7536C135.097 5.44983 137.75 8.34577 139.753 11.8409ZM136.198 3.45262C140.854 9.24452 145.561 18.4317 144.71 18.8811C143.408 19.4802 141.355 9.14465 131.892 1.80492C133.695 1.55525 135.046 2.05457 136.198 3.45262ZM140.354 5.39989C147.063 16.3346 147.513 21.5773 146.162 19.8797C145.31 18.8311 143.608 11.4914 136.749 3.40268C135.747 2.05457 138.802 2.85345 140.354 5.39989ZM149.867 12.1904C151.569 21.6272 154.573 22.9753 154.573 24.4732C152.02 24.2735 147.814 21.2777 147.664 20.329C146.162 11.791 140.554 5.59961 140.854 4.70087C141.806 4.10172 149.416 9.89362 149.867 12.1904ZM155.124 23.0253C155.374 23.4746 154.723 23.6244 155.174 23.7243C155.324 23.7742 156.075 24.0738 156.125 24.1737C156.075 24.2735 156.025 24.4233 155.975 24.4233C155.675 24.3734 156.225 24.2236 156.075 24.1737C155.875 24.1237 155.074 23.7243 154.924 23.7243C155.224 23.225 152.07 20.4788 150.668 13.3388C152.62 12.6897 153.421 19.6799 155.124 23.0253ZM173.248 36.5564C172.698 36.5564 172.447 36.1569 172.147 35.7076C168.792 31.114 164.487 29.2666 166.79 30.1653C170.094 31.3636 172.948 36.3566 173.248 36.5564ZM173.198 37.4052C173.299 37.5051 173.349 37.6049 173.198 37.8046C173.248 37.6548 173.198 35.5578 173.198 37.4052ZM272.233 89.6822C272.183 89.7321 272.233 89.6822 271.883 89.3826C271.983 89.5324 272.083 89.5823 272.233 89.6822ZM84.6279 118.791C80.5723 114.448 83.3762 97.3215 85.3789 96.3229C88.8837 94.5753 87.9824 94.5753 88.9337 94.7251C89.6848 94.775 88.3329 94.5254 90.636 93.5268C94.3912 91.9789 101.301 88.5338 102.502 84.6891C102.702 84.09 102.252 83.6406 101.651 83.8902C97.946 85.3382 96.2937 84.3895 78.6197 82.3424C76.3666 82.0928 73.3625 81.3937 71.7604 80.3951C78.4695 81.6434 85.3789 81.943 92.1381 83.0914C96.6442 83.8403 101.05 83.1912 105.306 81.3937C113.517 77.8487 111.915 79.1469 112.015 78.8473C112.416 79.047 111.164 78.7974 114.018 77.599C118.975 75.502 119.625 74.1539 122.83 73.2551C156.325 63.9181 150.718 67.3134 161.883 64.2677C175.902 60.423 176.553 62.5201 190.422 61.7212C198.533 61.2718 199.434 62.4202 201.837 61.172C204.741 59.6241 198.533 59.8239 190.372 54.7809C175.602 45.6936 168.192 46.7921 166.89 45.394C169.393 44.9447 172.347 46.3427 174.55 46.2928C177.404 46.2428 174.951 44.9946 173.999 40.7505C173.799 39.8018 173.849 38.7533 173.098 37.9544C175.151 37.4551 174.3 44.4953 182.11 48.7393C207.545 62.62 190.872 53.0334 220.262 62.7198C223.617 63.8183 223.467 63.5187 238.087 65.1664C256.161 67.2135 290.558 84.9388 292.31 85.6877C295.815 87.2356 291.459 84.9388 311.937 93.1773C315.442 94.5753 318.746 97.6211 325.355 98.6696C337.021 100.517 337.422 100.118 338.724 102.015C337.221 102.564 337.722 101.466 325.255 99.9678C314.39 98.6696 305.729 89.1829 288.205 87.6849C286.152 87.4852 279.693 89.8819 273.385 89.4325C272.283 89.3326 271.833 89.9817 272.233 89.2827C272.433 88.8833 272.133 89.1329 282.197 87.635C288.205 86.7363 289.306 86.1371 277.941 80.8944C256.261 70.8585 271.332 72.5561 212.402 63.4688C206.944 62.62 206.093 63.1193 188.92 62.7697C170.545 62.4202 168.242 64.767 163.085 65.9154C163.035 65.9154 135.347 72.1566 131.442 72.606C128.838 72.9056 126.034 74.3536 123.631 74.9527C116.822 76.5505 112.766 78.7474 112.516 78.8473C111.965 79.047 111.915 78.7974 111.865 78.8972C111.865 78.8972 111.615 79.2467 111.364 78.9472C111.364 78.9472 111.264 79.2467 111.114 79.3466C110.513 79.9458 107.609 79.9957 101.951 86.7862C95.5928 94.3756 88.2328 94.6752 88.1827 94.6752C86.7808 105.111 83.7266 106.009 84.6279 114.897C84.8782 116.095 84.8281 117.294 84.6279 118.791ZM83.1759 123.535C82.0744 116.794 78.3694 107.407 81.8741 99.1689C82.1745 98.37 82.6752 97.3215 83.4262 97.5711C85.1786 98.2202 78.5196 107.707 83.977 119.191C84.728 120.739 83.977 121.887 83.1759 123.535ZM80.6224 127.13C82.7753 118.791 75.2651 108.706 80.6224 99.5184C81.7239 100.267 78.4194 103.413 80.4221 113.848C82.0744 122.586 83.977 124.633 80.6224 127.13ZM70.1081 132.872C70.3585 130.575 71.0594 129.327 72.6616 122.836C74.6143 114.897 71.4099 110.653 72.261 109.455C74.5642 106.159 74.7144 103.113 79.4708 100.118C75.5155 113.699 82.4749 119.341 79.8714 127.479C78.82 130.825 69.8077 135.568 70.1081 132.872ZM68.3557 125.133C72.6115 116.345 70.3585 112.051 71.51 111.152C73.5628 117.344 72.4113 121.887 70.5587 128.128C69.0066 133.371 70.058 134.17 68.3557 134.27C65.2515 134.32 63.0485 136.117 68.3557 125.133ZM62.4978 133.221C63.1987 128.178 68.2556 122.886 70.1081 113.649C70.058 113.649 70.058 113.649 70.1081 113.599C70.1582 113.199 70.1081 112.95 70.3585 112.95C70.2583 113.699 70.1582 113.449 70.0581 113.649C72.8619 114.448 65.1514 130.375 64.5506 133.521C64.3503 134.619 62.2975 134.37 62.4978 133.221ZM52.8847 129.227C54.1865 125.932 56.9402 120.789 59.9944 119.54C66.2529 116.944 68.2055 114.348 69.0066 114.098C70.2583 115.995 62.2975 129.177 61.8969 133.171C61.7467 134.869 54.9375 132.073 53.4855 131.124C52.7345 130.675 52.5342 130.076 52.8847 129.227ZM49.7304 127.579C50.9821 125.782 54.9375 120.289 57.0403 120.988C51.8333 126.631 53.0349 130.775 51.0822 129.377C50.2311 128.778 49.1296 128.478 49.7304 127.579ZM48.3786 127.08C49.5802 124.933 50.932 122.936 53.2852 121.937C51.7832 123.785 50.3813 125.582 49.1796 127.579C48.7791 128.178 48.0781 127.579 48.3786 127.08ZM42.12 124.184C43.8724 120.839 42.6708 120.689 45.7249 120.739C45.775 120.739 49.9307 120.988 50.0308 121.238C49.8305 121.038 49.8806 121.138 49.8305 121.088C49.6303 122.337 47.1268 121.138 43.572 123.585C43.3717 123.735 43.1214 123.834 43.1214 124.284C44.4732 123.984 45.5247 122.986 46.8765 122.836C54.2866 121.787 50.181 121.638 47.8278 126.98C47.5775 127.579 47.3271 127.429 42.5706 125.582C41.8697 125.332 41.7696 124.833 42.12 124.184ZM41.5693 82.0428C41.5693 82.0428 41.5192 82.0428 41.5693 82.0428C41.5192 82.0428 41.5192 82.0428 41.5693 82.0428C41.6194 82.0428 41.6194 82.0928 41.5693 82.0428ZM41.5192 82.0428C41.5693 82.0428 41.6194 82.0428 41.5192 82.0428V82.0428Z" fill="#3E5617"/>
</svg>
